<svg width="676" height="698" viewBox="0 0 676 698" fill="none" xmlns="http://www.w3.org/2000/svg">
<path fill-rule="evenodd" clip-rule="evenodd" d="M371.891 403.713C390.646 379.336 428.792 390.662 459.575 388.264C491.851 385.75 528.898 367.844 553.062 389.601C577.215 411.349 560.321 450.237 564.12 482.397C568.386 518.512 596.486 556.552 576.336 586.629C555.607 617.569 510.594 621.172 473.298 617.96C440.633 615.147 410.628 597.087 391.056 570.674C374.584 548.444 383.01 519.264 379.865 491.869C376.367 461.39 353.269 427.917 371.891 403.713Z" fill="#407213"/>
<path fill-rule="evenodd" clip-rule="evenodd" d="M360.177 410.772C375.752 386.143 416.189 396.56 447.162 393.503C479.637 390.299 514.753 371.697 542.464 392.784C570.164 413.861 558.568 452.867 567.056 484.735C576.589 520.522 610.646 557.7 594.47 588.024C577.83 619.217 532.553 623.783 494.148 621.409C460.511 619.329 427.389 602.043 403.68 576.23C383.725 554.505 388.102 525.33 380.964 498.181C373.022 467.977 344.712 435.227 360.177 410.772Z" stroke="#A8EF7A" stroke-width="4" stroke-dasharray="12 12"/>
<path fill-rule="evenodd" clip-rule="evenodd" d="M292.619 65.3942C417.679 58.6298 540.445 139.467 572.855 265.248C601.692 377.163 503.968 465.322 412.854 532.012C327.582 594.427 219.467 649.101 134.687 585.965C48.7448 521.964 57.9258 396.208 89.7287 291.38C122.693 182.726 183.2 71.3127 292.619 65.3942Z" fill="#79DE2B"/>
<path fill-rule="evenodd" clip-rule="evenodd" d="M409.867 82.5087C528.807 121.739 613.716 241.724 598.109 370.673C584.223 485.405 461.109 531.935 351.968 560.877C249.825 587.964 129.224 599.524 73.2484 509.855C16.5052 418.957 70.8403 305.174 138.625 219.119C208.885 129.923 305.802 48.1844 409.867 82.5087Z" stroke="#D6FFC8" stroke-width="4" stroke-dasharray="13 13"/>
</svg>
